%TF.GenerationSoftware,KiCad,Pcbnew,(5.99.0-8090-ga1d7a959f7)*%
%TF.CreationDate,2021-01-05T15:40:31+00:00*%
%TF.ProjectId,BGYAmp,42475941-6d70-42e6-9b69-6361645f7063,rev?*%
%TF.SameCoordinates,Original*%
%TF.FileFunction,Copper,L1,Top*%
%TF.FilePolarity,Positive*%
%FSLAX46Y46*%
G04 Gerber Fmt 4.6, Leading zero omitted, Abs format (unit mm)*
G04 Created by KiCad (PCBNEW (5.99.0-8090-ga1d7a959f7)) date 2021-01-05 15:40:31*
%MOMM*%
%LPD*%
G01*
G04 APERTURE LIST*
G04 Aperture macros list*
%AMRoundRect*
0 Rectangle with rounded corners*
0 $1 Rounding radius*
0 $2 $3 $4 $5 $6 $7 $8 $9 X,Y pos of 4 corners*
0 Add a 4 corners polygon primitive as box body*
4,1,4,$2,$3,$4,$5,$6,$7,$8,$9,$2,$3,0*
0 Add four circle primitives for the rounded corners*
1,1,$1+$1,$2,$3,0*
1,1,$1+$1,$4,$5,0*
1,1,$1+$1,$6,$7,0*
1,1,$1+$1,$8,$9,0*
0 Add four rect primitives between the rounded corners*
20,1,$1+$1,$2,$3,$4,$5,0*
20,1,$1+$1,$4,$5,$6,$7,0*
20,1,$1+$1,$6,$7,$8,$9,0*
20,1,$1+$1,$8,$9,$2,$3,0*%
G04 Aperture macros list end*
%TA.AperFunction,SMDPad,CuDef*%
%ADD10RoundRect,0.250000X1.250000X0.550000X-1.250000X0.550000X-1.250000X-0.550000X1.250000X-0.550000X0*%
%TD*%
%TA.AperFunction,SMDPad,CuDef*%
%ADD11RoundRect,0.225000X-0.225000X-0.250000X0.225000X-0.250000X0.225000X0.250000X-0.225000X0.250000X0*%
%TD*%
%TA.AperFunction,SMDPad,CuDef*%
%ADD12RoundRect,0.250000X-1.250000X-0.550000X1.250000X-0.550000X1.250000X0.550000X-1.250000X0.550000X0*%
%TD*%
%TA.AperFunction,SMDPad,CuDef*%
%ADD13R,1.600000X1.600000*%
%TD*%
%TA.AperFunction,SMDPad,CuDef*%
%ADD14R,1.970000X0.610000*%
%TD*%
%TA.AperFunction,SMDPad,CuDef*%
%ADD15R,5.000000X2.800000*%
%TD*%
%TA.AperFunction,SMDPad,CuDef*%
%ADD16RoundRect,0.250000X-1.425000X0.362500X-1.425000X-0.362500X1.425000X-0.362500X1.425000X0.362500X0*%
%TD*%
%TA.AperFunction,SMDPad,CuDef*%
%ADD17RoundRect,0.250000X1.425000X-0.362500X1.425000X0.362500X-1.425000X0.362500X-1.425000X-0.362500X0*%
%TD*%
%TA.AperFunction,SMDPad,CuDef*%
%ADD18R,0.450000X6.500000*%
%TD*%
%TA.AperFunction,ViaPad*%
%ADD19C,0.800000*%
%TD*%
%TA.AperFunction,ViaPad*%
%ADD20C,5.800000*%
%TD*%
%TA.AperFunction,Conductor*%
%ADD21C,0.250000*%
%TD*%
%TA.AperFunction,Conductor*%
%ADD22C,0.353000*%
%TD*%
G04 APERTURE END LIST*
D10*
%TO.P,C1,1*%
%TO.N,+5V*%
X135981800Y-163372800D03*
%TO.P,C1,2*%
%TO.N,GND*%
X131581800Y-163372800D03*
%TD*%
D11*
%TO.P,C2,1*%
%TO.N,+5V*%
X136054800Y-159054800D03*
%TO.P,C2,2*%
%TO.N,GND*%
X137604800Y-159054800D03*
%TD*%
%TO.P,C3,1*%
%TO.N,Net-(C3-Pad1)*%
X136054800Y-142544800D03*
%TO.P,C3,2*%
%TO.N,GND*%
X137604800Y-142544800D03*
%TD*%
%TO.P,C4,1*%
%TO.N,Net-(C3-Pad1)*%
X136054800Y-137718800D03*
%TO.P,C4,2*%
%TO.N,GND*%
X137604800Y-137718800D03*
%TD*%
D12*
%TO.P,C5,1*%
%TO.N,+24V*%
X153933800Y-163372800D03*
%TO.P,C5,2*%
%TO.N,GND*%
X158333800Y-163372800D03*
%TD*%
D11*
%TO.P,C6,1*%
%TO.N,GND*%
X152310800Y-159054800D03*
%TO.P,C6,2*%
%TO.N,+24V*%
X153860800Y-159054800D03*
%TD*%
%TO.P,C7,1*%
%TO.N,GND*%
X152310800Y-142544800D03*
%TO.P,C7,2*%
%TO.N,Net-(C7-Pad2)*%
X153860800Y-142544800D03*
%TD*%
%TO.P,C8,1*%
%TO.N,GND*%
X152310800Y-137718800D03*
%TO.P,C8,2*%
%TO.N,Net-(C7-Pad2)*%
X153860800Y-137718800D03*
%TD*%
D13*
%TO.P,FB1,1*%
%TO.N,Net-(C3-Pad1)*%
X136067800Y-148386800D03*
%TO.P,FB1,2*%
%TO.N,+5V*%
X136067800Y-156006800D03*
%TD*%
%TO.P,FB2,1*%
%TO.N,+24V*%
X153847800Y-156006800D03*
%TO.P,FB2,2*%
%TO.N,Net-(C7-Pad2)*%
X153847800Y-148386800D03*
%TD*%
D14*
%TO.P,J1,1,In*%
%TO.N,Net-(J1-Pad1)*%
X101035600Y-148500000D03*
D15*
%TO.P,J1,2,Ext*%
%TO.N,GND*%
X102550600Y-144050000D03*
X102550600Y-152950000D03*
%TD*%
D14*
%TO.P,J2,1,In*%
%TO.N,Net-(J2-Pad1)*%
X189015000Y-148500000D03*
D15*
%TO.P,J2,2,Ext*%
%TO.N,GND*%
X187500000Y-144050000D03*
X187500000Y-152950000D03*
%TD*%
D16*
%TO.P,R1,1*%
%TO.N,Net-(C3-Pad1)*%
X140893800Y-149234300D03*
%TO.P,R1,2*%
%TO.N,+5V*%
X140893800Y-155159300D03*
%TD*%
D17*
%TO.P,R2,1*%
%TO.N,+24V*%
X149021800Y-155159300D03*
%TO.P,R2,2*%
%TO.N,Net-(C7-Pad2)*%
X149021800Y-149234300D03*
%TD*%
D18*
%TO.P,U1,1,RFin*%
%TO.N,Net-(J1-Pad1)*%
X133570000Y-130200000D03*
%TO.P,U1,2,VS1*%
%TO.N,Net-(C3-Pad1)*%
X136110000Y-130200000D03*
%TO.P,U1,3,VS2*%
%TO.N,Net-(C7-Pad2)*%
X153890000Y-130200000D03*
%TO.P,U1,4,RFout*%
%TO.N,Net-(J2-Pad1)*%
X156430000Y-130200000D03*
%TD*%
D19*
%TO.N,GND*%
X178268881Y-129082800D03*
X178231800Y-144068800D03*
X139877800Y-128574800D03*
X150291800Y-132384800D03*
X187395004Y-159054800D03*
D20*
X144957800Y-162356800D03*
D19*
X139877800Y-132384800D03*
X139877800Y-142544800D03*
X164535004Y-165658800D03*
X170103800Y-162229800D03*
X164535004Y-159054800D03*
X102539800Y-165658800D03*
D20*
X181553004Y-162356800D03*
D19*
X144957800Y-149402800D03*
X150291800Y-142544800D03*
X150291800Y-159054800D03*
X139877800Y-137718800D03*
X142163800Y-146100800D03*
X150291800Y-168325800D03*
X147751800Y-158038800D03*
X178268881Y-135686800D03*
X150291800Y-128574800D03*
D20*
X181570881Y-132384800D03*
D19*
X187412881Y-129082800D03*
D20*
X108381800Y-132384800D03*
D19*
X111683800Y-144068800D03*
X114223800Y-165658800D03*
X119811800Y-162229800D03*
X183565800Y-144068800D03*
D20*
X144957800Y-132384800D03*
D19*
X142163800Y-158038800D03*
X106476800Y-144068800D03*
X147751800Y-146100800D03*
X102539800Y-159054800D03*
X102539800Y-135686800D03*
X150291800Y-137718800D03*
X175711004Y-159054800D03*
X144957800Y-137718800D03*
X114223800Y-159054800D03*
X102539800Y-129082800D03*
X187395004Y-165658800D03*
X139877800Y-168325800D03*
X150291800Y-146100800D03*
X102539800Y-155244800D03*
X125399800Y-159054800D03*
X144957800Y-155244800D03*
X175711004Y-165658800D03*
X125399800Y-165658800D03*
X144957800Y-142544800D03*
X144957800Y-152196800D03*
D20*
X108381800Y-162356800D03*
D19*
X111683800Y-129082800D03*
X139877800Y-159054800D03*
X139877800Y-146100800D03*
X111683800Y-135686800D03*
X187375800Y-155244800D03*
X187412881Y-135686800D03*
%TD*%
D21*
%TO.N,Net-(C7-Pad2)*%
X153890000Y-130200000D02*
X153847800Y-130242200D01*
D22*
%TO.N,Net-(J1-Pad1)*%
X133570000Y-130200000D02*
X133570000Y-133500000D01*
X118570000Y-148500000D02*
X102031800Y-148500000D01*
X133570000Y-133500000D02*
G75*
G02*
X118570000Y-148500000I-14999999J-1D01*
G01*
%TO.N,Net-(J2-Pad1)*%
X171387800Y-148513800D02*
X189000000Y-148513800D01*
X156387800Y-130242200D02*
X156387800Y-133513800D01*
D21*
X156430000Y-130200000D02*
X156387800Y-130242200D01*
D22*
X171387800Y-148513800D02*
G75*
G02*
X156387800Y-133513800I-1J14999999D01*
G01*
%TD*%
%TA.AperFunction,Conductor*%
%TO.N,+5V*%
G36*
X142613921Y-154502802D02*
G01*
X142660414Y-154556458D01*
X142671800Y-154608800D01*
X142671800Y-156896800D01*
X142651798Y-156964921D01*
X142598142Y-157011414D01*
X142545800Y-157022800D01*
X136575800Y-157022800D01*
X136575800Y-159816800D01*
X136803462Y-159816800D01*
X136871583Y-159836802D01*
X136890115Y-159851327D01*
X136937421Y-159896140D01*
X136977406Y-159919365D01*
X137021086Y-159944737D01*
X137069944Y-159996248D01*
X137083800Y-160053691D01*
X137083800Y-169366000D01*
X137063798Y-169434121D01*
X137010142Y-169480614D01*
X136957800Y-169492000D01*
X135177800Y-169492000D01*
X135109679Y-169471998D01*
X135063186Y-169418342D01*
X135051800Y-169366000D01*
X135051800Y-154608800D01*
X135071802Y-154540679D01*
X135125458Y-154494186D01*
X135177800Y-154482800D01*
X142545800Y-154482800D01*
X142613921Y-154502802D01*
G37*
%TD.AperFunction*%
%TD*%
%TA.AperFunction,Conductor*%
%TO.N,GND*%
G36*
X115054921Y-127528002D02*
G01*
X115101414Y-127581658D01*
X115112800Y-127634000D01*
X115112800Y-145466800D01*
X115092798Y-145534921D01*
X115039142Y-145581414D01*
X114986800Y-145592800D01*
X100634000Y-145592800D01*
X100565879Y-145572798D01*
X100519386Y-145519142D01*
X100508000Y-145466800D01*
X100508000Y-127634000D01*
X100528002Y-127565879D01*
X100581658Y-127519386D01*
X100634000Y-127508000D01*
X114986800Y-127508000D01*
X115054921Y-127528002D01*
G37*
%TD.AperFunction*%
%TD*%
%TA.AperFunction,Conductor*%
%TO.N,+24V*%
G36*
X154805921Y-154502802D02*
G01*
X154852414Y-154556458D01*
X154863800Y-154608800D01*
X154863800Y-169366000D01*
X154843798Y-169434121D01*
X154790142Y-169480614D01*
X154737800Y-169492000D01*
X152957800Y-169492000D01*
X152889679Y-169471998D01*
X152843186Y-169418342D01*
X152831800Y-169366000D01*
X152831800Y-160055921D01*
X152851802Y-159987800D01*
X152888715Y-159950549D01*
X153003386Y-159875367D01*
X153003387Y-159875366D01*
X153009511Y-159871351D01*
X153023914Y-159856147D01*
X153085283Y-159820449D01*
X153115386Y-159816800D01*
X153339800Y-159816800D01*
X153339800Y-157022800D01*
X147369800Y-157022800D01*
X147301679Y-157002798D01*
X147255186Y-156949142D01*
X147243800Y-156896800D01*
X147243800Y-154608800D01*
X147263802Y-154540679D01*
X147317458Y-154494186D01*
X147369800Y-154482800D01*
X154737800Y-154482800D01*
X154805921Y-154502802D01*
G37*
%TD.AperFunction*%
%TD*%
%TA.AperFunction,Conductor*%
%TO.N,GND*%
G36*
X189434121Y-127528002D02*
G01*
X189480614Y-127581658D01*
X189492000Y-127634000D01*
X189492000Y-145466800D01*
X189471998Y-145534921D01*
X189418342Y-145581414D01*
X189366000Y-145592800D01*
X174965881Y-145592800D01*
X174897760Y-145572798D01*
X174851267Y-145519142D01*
X174839881Y-145466800D01*
X174839881Y-127634000D01*
X174859883Y-127565879D01*
X174913539Y-127519386D01*
X174965881Y-127508000D01*
X189366000Y-127508000D01*
X189434121Y-127528002D01*
G37*
%TD.AperFunction*%
%TD*%
%TA.AperFunction,Conductor*%
%TO.N,Net-(C3-Pad1)*%
G36*
X136517921Y-127578802D02*
G01*
X136564414Y-127632458D01*
X136575800Y-127684800D01*
X136575800Y-147116800D01*
X142545800Y-147116800D01*
X142613921Y-147136802D01*
X142660414Y-147190458D01*
X142671800Y-147242800D01*
X142671800Y-149784800D01*
X142651798Y-149852921D01*
X142598142Y-149899414D01*
X142545800Y-149910800D01*
X135177800Y-149910800D01*
X135109679Y-149890798D01*
X135063186Y-149837142D01*
X135051800Y-149784800D01*
X135051800Y-147242800D01*
X135071802Y-147174679D01*
X135125458Y-147128186D01*
X135177800Y-147116800D01*
X135559800Y-147116800D01*
X135559800Y-127684800D01*
X135579802Y-127616679D01*
X135633458Y-127570186D01*
X135685800Y-127558800D01*
X136449800Y-127558800D01*
X136517921Y-127578802D01*
G37*
%TD.AperFunction*%
%TD*%
%TA.AperFunction,Conductor*%
%TO.N,GND*%
G36*
X189434121Y-151454802D02*
G01*
X189480614Y-151508458D01*
X189492000Y-151560800D01*
X189492000Y-169366000D01*
X189471998Y-169434121D01*
X189418342Y-169480614D01*
X189366000Y-169492000D01*
X156533004Y-169492000D01*
X156464883Y-169471998D01*
X156418390Y-169418342D01*
X156407004Y-169366000D01*
X156407004Y-157402800D01*
X156427006Y-157334679D01*
X156480662Y-157288186D01*
X156533004Y-157276800D01*
X184601004Y-157276800D01*
X184601004Y-151560800D01*
X184621006Y-151492679D01*
X184674662Y-151446186D01*
X184727004Y-151434800D01*
X189366000Y-151434800D01*
X189434121Y-151454802D01*
G37*
%TD.AperFunction*%
%TD*%
%TA.AperFunction,Conductor*%
%TO.N,Net-(C7-Pad2)*%
G36*
X154297921Y-127528002D02*
G01*
X154344414Y-127581658D01*
X154355800Y-127634000D01*
X154355800Y-147116800D01*
X154737800Y-147116800D01*
X154805921Y-147136802D01*
X154852414Y-147190458D01*
X154863800Y-147242800D01*
X154863800Y-149784800D01*
X154843798Y-149852921D01*
X154790142Y-149899414D01*
X154737800Y-149910800D01*
X147369800Y-149910800D01*
X147301679Y-149890798D01*
X147255186Y-149837142D01*
X147243800Y-149784800D01*
X147243800Y-147242800D01*
X147263802Y-147174679D01*
X147317458Y-147128186D01*
X147369800Y-147116800D01*
X153339800Y-147116800D01*
X153339800Y-127634000D01*
X153359802Y-127565879D01*
X153413458Y-127519386D01*
X153465800Y-127508000D01*
X154229800Y-127508000D01*
X154297921Y-127528002D01*
G37*
%TD.AperFunction*%
%TD*%
%TA.AperFunction,Conductor*%
%TO.N,GND*%
G36*
X105275921Y-151454802D02*
G01*
X105322414Y-151508458D01*
X105333800Y-151560800D01*
X105333800Y-157276800D01*
X133401800Y-157276800D01*
X133469921Y-157296802D01*
X133516414Y-157350458D01*
X133527800Y-157402800D01*
X133527800Y-169366000D01*
X133507798Y-169434121D01*
X133454142Y-169480614D01*
X133401800Y-169492000D01*
X100634000Y-169492000D01*
X100565879Y-169471998D01*
X100519386Y-169418342D01*
X100508000Y-169366000D01*
X100508000Y-151560800D01*
X100528002Y-151492679D01*
X100581658Y-151446186D01*
X100634000Y-151434800D01*
X105207800Y-151434800D01*
X105275921Y-151454802D01*
G37*
%TD.AperFunction*%
%TD*%
%TA.AperFunction,Conductor*%
%TO.N,GND*%
G36*
X152712668Y-127528002D02*
G01*
X152759161Y-127581658D01*
X152770546Y-127633601D01*
X152831400Y-146863401D01*
X152811614Y-146931585D01*
X152758106Y-146978247D01*
X152705401Y-146989800D01*
X147116800Y-146989800D01*
X147116800Y-148225574D01*
X147096798Y-148293695D01*
X147082273Y-148312226D01*
X146990480Y-148409126D01*
X146990477Y-148409130D01*
X146985442Y-148414445D01*
X146896625Y-148567355D01*
X146845367Y-148736596D01*
X146838300Y-148815778D01*
X146838300Y-149639685D01*
X146853778Y-149772442D01*
X146914113Y-149938663D01*
X147011069Y-150086546D01*
X147016381Y-150091578D01*
X147077453Y-150149432D01*
X147113151Y-150210801D01*
X147116800Y-150240905D01*
X147116800Y-154150574D01*
X147096798Y-154218695D01*
X147082273Y-154237226D01*
X146990480Y-154334126D01*
X146990477Y-154334130D01*
X146985442Y-154339445D01*
X146896625Y-154492355D01*
X146845367Y-154661596D01*
X146838300Y-154740778D01*
X146838300Y-155564685D01*
X146853778Y-155697442D01*
X146914113Y-155863663D01*
X147011069Y-156011546D01*
X147016381Y-156016578D01*
X147077453Y-156074432D01*
X147113151Y-156135801D01*
X147116800Y-156165905D01*
X147116800Y-157149800D01*
X152620493Y-157149800D01*
X152688614Y-157169802D01*
X152703005Y-157180575D01*
X152770181Y-157238784D01*
X152775110Y-157241035D01*
X152820414Y-157293320D01*
X152831800Y-157345661D01*
X152831800Y-159563800D01*
X152811798Y-159631921D01*
X152758142Y-159678414D01*
X152739636Y-159682440D01*
X152740298Y-159684696D01*
X152722916Y-159689800D01*
X152704800Y-159689800D01*
X152704800Y-161944689D01*
X152684798Y-162012810D01*
X152631142Y-162059303D01*
X152593393Y-162069840D01*
X152540760Y-162075977D01*
X152515429Y-162078930D01*
X152515428Y-162078930D01*
X152508157Y-162079778D01*
X152501279Y-162082274D01*
X152501277Y-162082275D01*
X152395958Y-162120504D01*
X152341936Y-162140113D01*
X152194053Y-162237069D01*
X152072442Y-162365445D01*
X151983625Y-162518355D01*
X151932367Y-162687596D01*
X151925300Y-162766778D01*
X151925300Y-163965686D01*
X151940778Y-164098443D01*
X152001113Y-164264664D01*
X152098069Y-164412547D01*
X152226445Y-164534158D01*
X152379355Y-164622975D01*
X152548596Y-164674233D01*
X152555036Y-164674808D01*
X152555037Y-164674808D01*
X152565694Y-164675759D01*
X152590001Y-164677928D01*
X152656073Y-164703906D01*
X152697613Y-164761482D01*
X152704800Y-164803429D01*
X152704800Y-169366000D01*
X152684798Y-169434121D01*
X152631142Y-169480614D01*
X152578800Y-169492000D01*
X137336800Y-169492000D01*
X137268679Y-169471998D01*
X137222186Y-169418342D01*
X137210800Y-169366000D01*
X137210800Y-164800911D01*
X137230802Y-164732790D01*
X137284458Y-164686297D01*
X137322208Y-164675759D01*
X137367297Y-164670502D01*
X137400170Y-164666670D01*
X137400171Y-164666670D01*
X137407442Y-164665822D01*
X137414320Y-164663326D01*
X137414322Y-164663325D01*
X137566784Y-164607984D01*
X137573663Y-164605487D01*
X137721546Y-164508531D01*
X137843157Y-164380155D01*
X137931975Y-164227245D01*
X137983233Y-164058004D01*
X137990300Y-163978822D01*
X137990300Y-162779915D01*
X137974822Y-162647158D01*
X137914487Y-162480937D01*
X137817531Y-162333054D01*
X137689155Y-162211443D01*
X137536245Y-162122626D01*
X137367004Y-162071368D01*
X137360564Y-162070793D01*
X137360563Y-162070793D01*
X137349683Y-162069822D01*
X137325599Y-162067673D01*
X137259527Y-162041695D01*
X137217987Y-161984119D01*
X137210800Y-161942172D01*
X137210800Y-159816800D01*
X137197253Y-159816800D01*
X137184017Y-159813921D01*
X137184976Y-159809511D01*
X137141679Y-159796798D01*
X137095186Y-159743142D01*
X137083800Y-159690800D01*
X137083800Y-157340972D01*
X137103802Y-157272851D01*
X137141679Y-157234974D01*
X137196491Y-157199749D01*
X137196494Y-157199747D01*
X137204071Y-157194877D01*
X137209971Y-157188068D01*
X137216782Y-157182166D01*
X137218917Y-157184630D01*
X137265186Y-157154901D01*
X137300673Y-157149800D01*
X142798800Y-157149800D01*
X142798800Y-156168024D01*
X142818802Y-156099903D01*
X142833327Y-156081371D01*
X142839901Y-156074432D01*
X142930157Y-155979155D01*
X143018975Y-155826245D01*
X143070233Y-155657004D01*
X143077300Y-155577822D01*
X143077300Y-154753915D01*
X143061822Y-154621158D01*
X143001487Y-154454937D01*
X142904531Y-154307054D01*
X142838147Y-154244168D01*
X142802449Y-154182799D01*
X142798800Y-154152695D01*
X142798800Y-150243024D01*
X142818802Y-150174903D01*
X142833327Y-150156371D01*
X142839901Y-150149432D01*
X142930157Y-150054155D01*
X143018975Y-149901245D01*
X143070233Y-149732004D01*
X143077300Y-149652822D01*
X143077300Y-148828915D01*
X143061822Y-148696158D01*
X143001487Y-148529937D01*
X142904531Y-148382054D01*
X142838147Y-148319168D01*
X142802449Y-148257799D01*
X142798800Y-148227695D01*
X142798800Y-146989800D01*
X137209402Y-146989800D01*
X137141281Y-146969798D01*
X137094788Y-146916142D01*
X137083403Y-146864199D01*
X137022549Y-127634399D01*
X137042335Y-127566215D01*
X137095843Y-127519553D01*
X137148548Y-127508000D01*
X152644547Y-127508000D01*
X152712668Y-127528002D01*
G37*
%TD.AperFunction*%
%TD*%
M02*
