%TF.GenerationSoftware,KiCad,Pcbnew,(5.99.0-8090-ga1d7a959f7)*%
%TF.CreationDate,2021-01-05T15:40:31+00:00*%
%TF.ProjectId,BGYAmp,42475941-6d70-42e6-9b69-6361645f7063,rev?*%
%TF.SameCoordinates,Original*%
%TF.FileFunction,Soldermask,Top*%
%TF.FilePolarity,Negative*%
%FSLAX46Y46*%
G04 Gerber Fmt 4.6, Leading zero omitted, Abs format (unit mm)*
G04 Created by KiCad (PCBNEW (5.99.0-8090-ga1d7a959f7)) date 2021-01-05 15:40:31*
%MOMM*%
%LPD*%
G01*
G04 APERTURE LIST*
G04 Aperture macros list*
%AMRoundRect*
0 Rectangle with rounded corners*
0 $1 Rounding radius*
0 $2 $3 $4 $5 $6 $7 $8 $9 X,Y pos of 4 corners*
0 Add a 4 corners polygon primitive as box body*
4,1,4,$2,$3,$4,$5,$6,$7,$8,$9,$2,$3,0*
0 Add four circle primitives for the rounded corners*
1,1,$1+$1,$2,$3,0*
1,1,$1+$1,$4,$5,0*
1,1,$1+$1,$6,$7,0*
1,1,$1+$1,$8,$9,0*
0 Add four rect primitives between the rounded corners*
20,1,$1+$1,$2,$3,$4,$5,0*
20,1,$1+$1,$4,$5,$6,$7,0*
20,1,$1+$1,$6,$7,$8,$9,0*
20,1,$1+$1,$8,$9,$2,$3,0*%
G04 Aperture macros list end*
%ADD10C,2.950000*%
%ADD11RoundRect,0.250000X1.250000X0.550000X-1.250000X0.550000X-1.250000X-0.550000X1.250000X-0.550000X0*%
%ADD12RoundRect,0.225000X-0.225000X-0.250000X0.225000X-0.250000X0.225000X0.250000X-0.225000X0.250000X0*%
%ADD13RoundRect,0.250000X-1.250000X-0.550000X1.250000X-0.550000X1.250000X0.550000X-1.250000X0.550000X0*%
%ADD14R,1.600000X1.600000*%
%ADD15R,1.970000X0.610000*%
%ADD16R,5.000000X2.800000*%
%ADD17RoundRect,0.250000X-1.425000X0.362500X-1.425000X-0.362500X1.425000X-0.362500X1.425000X0.362500X0*%
%ADD18RoundRect,0.250000X1.425000X-0.362500X1.425000X0.362500X-1.425000X0.362500X-1.425000X-0.362500X0*%
%ADD19R,0.450000X6.500000*%
G04 APERTURE END LIST*
D10*
X146432800Y-132384800D02*
G75*
G03*
X146432800Y-132384800I-1475000J0D01*
G01*
X146432800Y-162356800D02*
G75*
G03*
X146432800Y-162356800I-1475000J0D01*
G01*
D11*
%TO.C,C1*%
X135981800Y-163372800D03*
X131581800Y-163372800D03*
%TD*%
D12*
%TO.C,C2*%
X136054800Y-159054800D03*
X137604800Y-159054800D03*
%TD*%
%TO.C,C3*%
X136054800Y-142544800D03*
X137604800Y-142544800D03*
%TD*%
%TO.C,C4*%
X136054800Y-137718800D03*
X137604800Y-137718800D03*
%TD*%
D13*
%TO.C,C5*%
X153933800Y-163372800D03*
X158333800Y-163372800D03*
%TD*%
D12*
%TO.C,C6*%
X152310800Y-159054800D03*
X153860800Y-159054800D03*
%TD*%
%TO.C,C7*%
X152310800Y-142544800D03*
X153860800Y-142544800D03*
%TD*%
%TO.C,C8*%
X152310800Y-137718800D03*
X153860800Y-137718800D03*
%TD*%
D14*
%TO.C,FB1*%
X136067800Y-148386800D03*
X136067800Y-156006800D03*
%TD*%
%TO.C,FB2*%
X153847800Y-156006800D03*
X153847800Y-148386800D03*
%TD*%
D15*
%TO.C,J1*%
X101035600Y-148500000D03*
D16*
X102550600Y-144050000D03*
X102550600Y-152950000D03*
%TD*%
D15*
%TO.C,J2*%
X189015000Y-148500000D03*
D16*
X187500000Y-144050000D03*
X187500000Y-152950000D03*
%TD*%
D17*
%TO.C,R1*%
X140893800Y-149234300D03*
X140893800Y-155159300D03*
%TD*%
D18*
%TO.C,R2*%
X149021800Y-155159300D03*
X149021800Y-149234300D03*
%TD*%
D19*
%TO.C,U1*%
X133570000Y-130200000D03*
X136110000Y-130200000D03*
X153890000Y-130200000D03*
X156430000Y-130200000D03*
%TD*%
G36*
X154805921Y-167202802D02*
G01*
X154852414Y-167256458D01*
X154863800Y-167308800D01*
X154863800Y-169366000D01*
X154843798Y-169434121D01*
X154790142Y-169480614D01*
X154737800Y-169492000D01*
X152957800Y-169492000D01*
X152889679Y-169471998D01*
X152843186Y-169418342D01*
X152831800Y-169366000D01*
X152831800Y-167308800D01*
X152851802Y-167240679D01*
X152905458Y-167194186D01*
X152957800Y-167182800D01*
X154737800Y-167182800D01*
X154805921Y-167202802D01*
G37*
G36*
X134739921Y-127528002D02*
G01*
X134786414Y-127581658D01*
X134797800Y-127634000D01*
X134797800Y-169366000D01*
X134777798Y-169434121D01*
X134724142Y-169480614D01*
X134671800Y-169492000D01*
X100634000Y-169492000D01*
X100565879Y-169471998D01*
X100519386Y-169418342D01*
X100508000Y-169366000D01*
X100508000Y-127634000D01*
X100528002Y-127565879D01*
X100581658Y-127519386D01*
X100634000Y-127508000D01*
X134671800Y-127508000D01*
X134739921Y-127528002D01*
G37*
G36*
X145915921Y-167202802D02*
G01*
X145962414Y-167256458D01*
X145973800Y-167308800D01*
X145973800Y-169366000D01*
X145953798Y-169434121D01*
X145900142Y-169480614D01*
X145847800Y-169492000D01*
X144067800Y-169492000D01*
X143999679Y-169471998D01*
X143953186Y-169418342D01*
X143941800Y-169366000D01*
X143941800Y-167308800D01*
X143961802Y-167240679D01*
X144015458Y-167194186D01*
X144067800Y-167182800D01*
X145847800Y-167182800D01*
X145915921Y-167202802D01*
G37*
G36*
X137025921Y-167202802D02*
G01*
X137072414Y-167256458D01*
X137083800Y-167308800D01*
X137083800Y-169366000D01*
X137063798Y-169434121D01*
X137010142Y-169480614D01*
X136957800Y-169492000D01*
X135177800Y-169492000D01*
X135109679Y-169471998D01*
X135063186Y-169418342D01*
X135051800Y-169366000D01*
X135051800Y-167308800D01*
X135071802Y-167240679D01*
X135125458Y-167194186D01*
X135177800Y-167182800D01*
X136957800Y-167182800D01*
X137025921Y-167202802D01*
G37*
G36*
X189434121Y-127528002D02*
G01*
X189480614Y-127581658D01*
X189492000Y-127634000D01*
X189492000Y-169366000D01*
X189471998Y-169434121D01*
X189418342Y-169480614D01*
X189366000Y-169492000D01*
X155370800Y-169492000D01*
X155302679Y-169471998D01*
X155256186Y-169418342D01*
X155244800Y-169366000D01*
X155244800Y-127634000D01*
X155264802Y-127565879D01*
X155318458Y-127519386D01*
X155370800Y-127508000D01*
X189366000Y-127508000D01*
X189434121Y-127528002D01*
G37*
M02*
