%TF.GenerationSoftware,KiCad,Pcbnew,(5.99.0-8090-ga1d7a959f7)*%
%TF.CreationDate,2021-01-05T15:40:31+00:00*%
%TF.ProjectId,BGYAmp,42475941-6d70-42e6-9b69-6361645f7063,rev?*%
%TF.SameCoordinates,Original*%
%TF.FileFunction,Copper,L4,Bot*%
%TF.FilePolarity,Positive*%
%FSLAX46Y46*%
G04 Gerber Fmt 4.6, Leading zero omitted, Abs format (unit mm)*
G04 Created by KiCad (PCBNEW (5.99.0-8090-ga1d7a959f7)) date 2021-01-05 15:40:31*
%MOMM*%
%LPD*%
G01*
G04 APERTURE LIST*
%TA.AperFunction,SMDPad,CuDef*%
%ADD10R,5.000000X2.800000*%
%TD*%
%TA.AperFunction,ViaPad*%
%ADD11C,0.800000*%
%TD*%
%TA.AperFunction,ViaPad*%
%ADD12C,5.800000*%
%TD*%
G04 APERTURE END LIST*
D10*
%TO.P,J1,2,Ext*%
%TO.N,GND*%
X102550600Y-152950000D03*
X102550600Y-144050000D03*
%TD*%
%TO.P,J2,2,Ext*%
%TO.N,GND*%
X187500000Y-152950000D03*
X187500000Y-144050000D03*
%TD*%
D11*
%TO.N,GND*%
X178268881Y-129082800D03*
X178231800Y-144068800D03*
X139877800Y-128574800D03*
X150291800Y-132384800D03*
X187395004Y-159054800D03*
D12*
X144957800Y-162356800D03*
D11*
X139877800Y-132384800D03*
X139877800Y-142544800D03*
X164535004Y-165658800D03*
X170103800Y-162229800D03*
X164535004Y-159054800D03*
X102539800Y-165658800D03*
D12*
X181553004Y-162356800D03*
D11*
X144957800Y-149402800D03*
X150291800Y-142544800D03*
X150291800Y-159054800D03*
X139877800Y-137718800D03*
X142163800Y-146100800D03*
X150291800Y-168325800D03*
X147751800Y-158038800D03*
X178268881Y-135686800D03*
X150291800Y-128574800D03*
D12*
X181570881Y-132384800D03*
D11*
X187412881Y-129082800D03*
D12*
X108381800Y-132384800D03*
D11*
X111683800Y-144068800D03*
X114223800Y-165658800D03*
X119811800Y-162229800D03*
X183565800Y-144068800D03*
D12*
X144957800Y-132384800D03*
D11*
X142163800Y-158038800D03*
X106476800Y-144068800D03*
X147751800Y-146100800D03*
X102539800Y-159054800D03*
X102539800Y-135686800D03*
X150291800Y-137718800D03*
X175711004Y-159054800D03*
X144957800Y-137718800D03*
X114223800Y-159054800D03*
X102539800Y-129082800D03*
X187395004Y-165658800D03*
X139877800Y-168325800D03*
X150291800Y-146100800D03*
X102539800Y-155244800D03*
X125399800Y-159054800D03*
X144957800Y-155244800D03*
X175711004Y-165658800D03*
X125399800Y-165658800D03*
X144957800Y-142544800D03*
X144957800Y-152196800D03*
D12*
X108381800Y-162356800D03*
D11*
X111683800Y-129082800D03*
X139877800Y-159054800D03*
X139877800Y-146100800D03*
X111683800Y-135686800D03*
X187375800Y-155244800D03*
X187412881Y-135686800D03*
%TD*%
%TA.AperFunction,Conductor*%
%TO.N,GND*%
G36*
X189434121Y-127528002D02*
G01*
X189480614Y-127581658D01*
X189492000Y-127634000D01*
X189492000Y-169366000D01*
X189471998Y-169434121D01*
X189418342Y-169480614D01*
X189366000Y-169492000D01*
X100634000Y-169492000D01*
X100565879Y-169471998D01*
X100519386Y-169418342D01*
X100508000Y-169366000D01*
X100508000Y-127634000D01*
X100528002Y-127565879D01*
X100581658Y-127519386D01*
X100634000Y-127508000D01*
X189366000Y-127508000D01*
X189434121Y-127528002D01*
G37*
%TD.AperFunction*%
%TD*%
M02*
