M48
; DRILL file {KiCad (5.99.0-8090-ga1d7a959f7)} date 01/05/21 15:40:34
; FORMAT={-:-/ absolute / inch / decimal}
; #@! TF.CreationDate,2021-01-05T15:40:34+00:00
; #@! TF.GenerationSoftware,Kicad,Pcbnew,(5.99.0-8090-ga1d7a959f7)
FMAT,2
INCH
T1C0.0157
T2C0.1260
%
G90
G05
T1
X4.037Y-5.082
X4.037Y-5.342
X4.037Y-6.112
X4.037Y-6.262
X4.037Y-6.522
X4.192Y-5.672
X4.397Y-5.082
X4.397Y-5.342
X4.397Y-5.672
X4.497Y-6.262
X4.497Y-6.522
X4.717Y-6.387
X4.937Y-6.262
X4.937Y-6.522
X5.507Y-5.062
X5.507Y-5.212
X5.507Y-5.422
X5.507Y-5.612
X5.507Y-5.752
X5.507Y-6.262
X5.507Y-6.627
X5.597Y-5.752
X5.597Y-6.222
X5.707Y-5.422
X5.707Y-5.612
X5.707Y-5.882
X5.707Y-5.992
X5.707Y-6.112
X5.817Y-5.752
X5.817Y-6.222
X5.917Y-5.062
X5.917Y-5.212
X5.917Y-5.422
X5.917Y-5.612
X5.917Y-5.752
X5.917Y-6.262
X5.917Y-6.627
X6.4778Y-6.262
X6.4778Y-6.522
X6.697Y-6.387
X6.9178Y-6.262
X6.9178Y-6.522
X7.017Y-5.672
X7.0185Y-5.082
X7.0185Y-5.342
X7.227Y-5.672
X7.377Y-6.112
X7.3778Y-6.262
X7.3778Y-6.522
X7.3785Y-5.082
X7.3785Y-5.342
T2
X4.267Y-5.212
X4.267Y-6.392
X5.707Y-5.212
X5.707Y-6.392
X7.1478Y-6.392
X7.1485Y-5.212
T0
M30
