%TF.GenerationSoftware,KiCad,Pcbnew,(7.0.0)*%
%TF.CreationDate,2023-07-10T13:28:02+01:00*%
%TF.ProjectId,lc-b3-mpa,6c632d62-332d-46d7-9061-2e6b69636164,rev?*%
%TF.SameCoordinates,PX5bf2160PY7a21618*%
%TF.FileFunction,Copper,L3,Inr*%
%TF.FilePolarity,Positive*%
%FSLAX46Y46*%
G04 Gerber Fmt 4.6, Leading zero omitted, Abs format (unit mm)*
G04 Created by KiCad (PCBNEW (7.0.0)) date 2023-07-10 13:28:02*
%MOMM*%
%LPD*%
G01*
G04 APERTURE LIST*
%TA.AperFunction,ViaPad*%
%ADD10C,0.800000*%
%TD*%
%TA.AperFunction,ViaPad*%
%ADD11C,5.800000*%
%TD*%
G04 APERTURE END LIST*
D10*
%TO.N,GND*%
X82268881Y40917200D03*
X82231800Y25931200D03*
X43877800Y41425200D03*
X54291800Y37615200D03*
X91395004Y10945200D03*
D11*
X48957800Y7643200D03*
D10*
X43877800Y37615200D03*
X43877800Y27455200D03*
X68535004Y4341200D03*
X74103800Y7770200D03*
X68535004Y10945200D03*
X6539800Y4341200D03*
D11*
X85553004Y7643200D03*
D10*
X48957800Y20597200D03*
X54291800Y27455200D03*
X54291800Y10945200D03*
X43877800Y32281200D03*
X46163800Y23899200D03*
X54291800Y1674200D03*
X51751800Y11961200D03*
X82268881Y34313200D03*
X54291800Y41425200D03*
D11*
X85570881Y37615200D03*
D10*
X91412881Y40917200D03*
D11*
X12381800Y37615200D03*
D10*
X15683800Y25931200D03*
X18223800Y4341200D03*
X23811800Y7770200D03*
X87565800Y25931200D03*
D11*
X48957800Y37615200D03*
D10*
X46163800Y11961200D03*
X10476800Y25931200D03*
X51751800Y23899200D03*
X6539800Y10945200D03*
X6539800Y34313200D03*
X54291800Y32281200D03*
X79711004Y10945200D03*
X48957800Y32281200D03*
X18223800Y10945200D03*
X6539800Y40917200D03*
X91395004Y4341200D03*
X43877800Y1674200D03*
X54291800Y23899200D03*
X6539800Y14755200D03*
X29399800Y10945200D03*
X48957800Y14755200D03*
X79711004Y4341200D03*
X29399800Y4341200D03*
X48957800Y27455200D03*
X48957800Y17803200D03*
D11*
X12381800Y7643200D03*
D10*
X15683800Y40917200D03*
X43877800Y10945200D03*
X43877800Y23899200D03*
X15683800Y34313200D03*
X91375800Y14755200D03*
X91412881Y34313200D03*
%TD*%
%TA.AperFunction,Conductor*%
%TO.N,GND*%
G36*
X97879800Y42832319D02*
G01*
X97925919Y42786200D01*
X97942800Y42723200D01*
X97942800Y176500D01*
X97925919Y113500D01*
X97879800Y67381D01*
X97816800Y50500D01*
X176500Y50500D01*
X113500Y67381D01*
X67381Y113500D01*
X50500Y176500D01*
X50500Y42723200D01*
X67381Y42786200D01*
X113500Y42832319D01*
X176500Y42849200D01*
X97816800Y42849200D01*
X97879800Y42832319D01*
G37*
%TD.AperFunction*%
%TD*%
M02*
