%TF.GenerationSoftware,KiCad,Pcbnew,(7.0.0)*%
%TF.CreationDate,2023-07-10T13:28:02+01:00*%
%TF.ProjectId,lc-b3-mpa,6c632d62-332d-46d7-9061-2e6b69636164,rev?*%
%TF.SameCoordinates,PX5bf2160PY7a21618*%
%TF.FileFunction,Copper,L1,Top*%
%TF.FilePolarity,Positive*%
%FSLAX46Y46*%
G04 Gerber Fmt 4.6, Leading zero omitted, Abs format (unit mm)*
G04 Created by KiCad (PCBNEW (7.0.0)) date 2023-07-10 13:28:02*
%MOMM*%
%LPD*%
G01*
G04 APERTURE LIST*
G04 Aperture macros list*
%AMRoundRect*
0 Rectangle with rounded corners*
0 $1 Rounding radius*
0 $2 $3 $4 $5 $6 $7 $8 $9 X,Y pos of 4 corners*
0 Add a 4 corners polygon primitive as box body*
4,1,4,$2,$3,$4,$5,$6,$7,$8,$9,$2,$3,0*
0 Add four circle primitives for the rounded corners*
1,1,$1+$1,$2,$3*
1,1,$1+$1,$4,$5*
1,1,$1+$1,$6,$7*
1,1,$1+$1,$8,$9*
0 Add four rect primitives between the rounded corners*
20,1,$1+$1,$2,$3,$4,$5,0*
20,1,$1+$1,$4,$5,$6,$7,0*
20,1,$1+$1,$6,$7,$8,$9,0*
20,1,$1+$1,$8,$9,$2,$3,0*%
G04 Aperture macros list end*
%TA.AperFunction,SMDPad,CuDef*%
%ADD10RoundRect,0.250000X1.250000X0.550000X-1.250000X0.550000X-1.250000X-0.550000X1.250000X-0.550000X0*%
%TD*%
%TA.AperFunction,SMDPad,CuDef*%
%ADD11RoundRect,0.225000X-0.225000X-0.250000X0.225000X-0.250000X0.225000X0.250000X-0.225000X0.250000X0*%
%TD*%
%TA.AperFunction,SMDPad,CuDef*%
%ADD12RoundRect,0.250000X-1.250000X-0.550000X1.250000X-0.550000X1.250000X0.550000X-1.250000X0.550000X0*%
%TD*%
%TA.AperFunction,SMDPad,CuDef*%
%ADD13R,1.600000X1.600000*%
%TD*%
%TA.AperFunction,SMDPad,CuDef*%
%ADD14R,4.190000X1.780000*%
%TD*%
%TA.AperFunction,SMDPad,CuDef*%
%ADD15R,4.190000X2.660000*%
%TD*%
%TA.AperFunction,SMDPad,CuDef*%
%ADD16RoundRect,0.250000X-1.425000X0.362500X-1.425000X-0.362500X1.425000X-0.362500X1.425000X0.362500X0*%
%TD*%
%TA.AperFunction,SMDPad,CuDef*%
%ADD17RoundRect,0.250000X1.425000X-0.362500X1.425000X0.362500X-1.425000X0.362500X-1.425000X-0.362500X0*%
%TD*%
%TA.AperFunction,SMDPad,CuDef*%
%ADD18R,0.450000X6.500000*%
%TD*%
%TA.AperFunction,ViaPad*%
%ADD19C,0.800000*%
%TD*%
%TA.AperFunction,ViaPad*%
%ADD20C,5.800000*%
%TD*%
%TA.AperFunction,Conductor*%
%ADD21C,0.250000*%
%TD*%
%TA.AperFunction,Conductor*%
%ADD22C,0.353000*%
%TD*%
G04 APERTURE END LIST*
D10*
%TO.P,C1,1*%
%TO.N,+5V*%
X39981800Y6627200D03*
%TO.P,C1,2*%
%TO.N,GND*%
X35581800Y6627200D03*
%TD*%
D11*
%TO.P,C2,1*%
%TO.N,+5V*%
X40054800Y10945200D03*
%TO.P,C2,2*%
%TO.N,GND*%
X41604800Y10945200D03*
%TD*%
%TO.P,C3,1*%
%TO.N,Net-(U1-VS1)*%
X40054800Y27455200D03*
%TO.P,C3,2*%
%TO.N,GND*%
X41604800Y27455200D03*
%TD*%
%TO.P,C4,1*%
%TO.N,Net-(U1-VS1)*%
X40054800Y32281200D03*
%TO.P,C4,2*%
%TO.N,GND*%
X41604800Y32281200D03*
%TD*%
D12*
%TO.P,C5,1*%
%TO.N,+24V*%
X57933800Y6627200D03*
%TO.P,C5,2*%
%TO.N,GND*%
X62333800Y6627200D03*
%TD*%
D11*
%TO.P,C6,1*%
%TO.N,GND*%
X56310800Y10945200D03*
%TO.P,C6,2*%
%TO.N,+24V*%
X57860800Y10945200D03*
%TD*%
%TO.P,C7,1*%
%TO.N,GND*%
X56310800Y27455200D03*
%TO.P,C7,2*%
%TO.N,Net-(U1-VS2)*%
X57860800Y27455200D03*
%TD*%
%TO.P,C8,1*%
%TO.N,GND*%
X56310800Y32281200D03*
%TO.P,C8,2*%
%TO.N,Net-(U1-VS2)*%
X57860800Y32281200D03*
%TD*%
D13*
%TO.P,FB1,1*%
%TO.N,Net-(U1-VS1)*%
X40067799Y21613199D03*
%TO.P,FB1,2*%
%TO.N,+5V*%
X40067799Y13993199D03*
%TD*%
%TO.P,FB2,1*%
%TO.N,+24V*%
X57847799Y13993199D03*
%TO.P,FB2,2*%
%TO.N,Net-(U1-VS2)*%
X57847799Y21613199D03*
%TD*%
D14*
%TO.P,J1,1,In*%
%TO.N,Net-(J1-In)*%
X2132499Y21485620D03*
D15*
%TO.P,J1,2,Ext*%
%TO.N,GND*%
X2132499Y17995620D03*
X2132499Y24975620D03*
%TD*%
D14*
%TO.P,J2,1,In*%
%TO.N,Net-(J2-In)*%
X95899999Y21499999D03*
D15*
%TO.P,J2,2,Ext*%
%TO.N,GND*%
X95899999Y24989999D03*
X95899999Y18009999D03*
%TD*%
D16*
%TO.P,R1,1*%
%TO.N,Net-(U1-VS1)*%
X44893800Y20765700D03*
%TO.P,R1,2*%
%TO.N,+5V*%
X44893800Y14840700D03*
%TD*%
D17*
%TO.P,R2,1*%
%TO.N,+24V*%
X53021800Y14840700D03*
%TO.P,R2,2*%
%TO.N,Net-(U1-VS2)*%
X53021800Y20765700D03*
%TD*%
D18*
%TO.P,U1,1,RFin*%
%TO.N,Net-(J1-In)*%
X37569999Y39799999D03*
%TO.P,U1,2,VS1*%
%TO.N,Net-(U1-VS1)*%
X40109999Y39799999D03*
%TO.P,U1,3,VS2*%
%TO.N,Net-(U1-VS2)*%
X57889999Y39799999D03*
%TO.P,U1,4,RFout*%
%TO.N,Net-(J2-In)*%
X60429999Y39799999D03*
%TD*%
D19*
%TO.N,GND*%
X82268881Y40917200D03*
X82231800Y25931200D03*
X43877800Y41425200D03*
X54291800Y37615200D03*
X91395004Y10945200D03*
D20*
X48957800Y7643200D03*
D19*
X43877800Y37615200D03*
X43877800Y27455200D03*
X68535004Y4341200D03*
X74103800Y7770200D03*
X68535004Y10945200D03*
X6539800Y4341200D03*
D20*
X85553004Y7643200D03*
D19*
X48957800Y20597200D03*
X54291800Y27455200D03*
X54291800Y10945200D03*
X43877800Y32281200D03*
X46163800Y23899200D03*
X54291800Y1674200D03*
X51751800Y11961200D03*
X82268881Y34313200D03*
X54291800Y41425200D03*
D20*
X85570881Y37615200D03*
D19*
X91412881Y40917200D03*
D20*
X12381800Y37615200D03*
D19*
X15683800Y25931200D03*
X18223800Y4341200D03*
X23811800Y7770200D03*
X87565800Y25931200D03*
D20*
X48957800Y37615200D03*
D19*
X46163800Y11961200D03*
X10476800Y25931200D03*
X51751800Y23899200D03*
X6539800Y10945200D03*
X6539800Y34313200D03*
X54291800Y32281200D03*
X79711004Y10945200D03*
X48957800Y32281200D03*
X18223800Y10945200D03*
X6539800Y40917200D03*
X91395004Y4341200D03*
X43877800Y1674200D03*
X54291800Y23899200D03*
X6539800Y14755200D03*
X29399800Y10945200D03*
X48957800Y14755200D03*
X79711004Y4341200D03*
X29399800Y4341200D03*
X48957800Y27455200D03*
X48957800Y17803200D03*
D20*
X12381800Y7643200D03*
D19*
X15683800Y40917200D03*
X43877800Y10945200D03*
X43877800Y23899200D03*
X15683800Y34313200D03*
X91375800Y14755200D03*
X91412881Y34313200D03*
%TD*%
D21*
%TO.N,Net-(U1-VS2)*%
X57890000Y39800000D02*
X57847800Y39757800D01*
D22*
%TO.N,Net-(J1-In)*%
X22570000Y21500000D02*
X2146879Y21500000D01*
X2146879Y21500000D02*
X2132500Y21485621D01*
X37570000Y39800000D02*
X37570000Y36500000D01*
X22570000Y21500000D02*
G75*
G03*
X37570000Y36500000I0J15000000D01*
G01*
%TO.N,Net-(J2-In)*%
X75387800Y21486200D02*
X95886200Y21486200D01*
X95886200Y21486200D02*
X95900000Y21500000D01*
X60387800Y39757800D02*
X60387800Y36486200D01*
D21*
X60430000Y39800000D02*
X60387800Y39757800D01*
D22*
X60387800Y36486200D02*
G75*
G03*
X75387800Y21486200I15000000J0D01*
G01*
%TD*%
%TA.AperFunction,Conductor*%
%TO.N,+5V*%
G36*
X46367316Y15505103D02*
G01*
X46410842Y15471135D01*
X46472606Y15395878D01*
X46474791Y15393693D01*
X46474792Y15393692D01*
X46501871Y15366613D01*
X46520017Y15343664D01*
X46534624Y15319982D01*
X46546988Y15293467D01*
X46557221Y15262584D01*
X46562957Y15235825D01*
X46563140Y15234032D01*
X46563799Y15221171D01*
X46563799Y14460242D01*
X46563144Y14447415D01*
X46562960Y14445617D01*
X46557219Y14418811D01*
X46546986Y14387930D01*
X46534622Y14361416D01*
X46520022Y14337746D01*
X46501880Y14314801D01*
X46474800Y14287720D01*
X46474781Y14287700D01*
X46472607Y14285525D01*
X46470665Y14283160D01*
X46470648Y14283140D01*
X46410707Y14210100D01*
X46410698Y14210090D01*
X46408744Y14207707D01*
X46407027Y14205139D01*
X46407023Y14205132D01*
X46383151Y14169405D01*
X46383146Y14169397D01*
X46381431Y14166830D01*
X46379986Y14164128D01*
X46379973Y14164105D01*
X46336893Y14083507D01*
X46333978Y14078053D01*
X46332185Y14072143D01*
X46332182Y14072135D01*
X46305654Y13984683D01*
X46305649Y13984667D01*
X46304757Y13981723D01*
X46304153Y13978690D01*
X46304153Y13978687D01*
X46295770Y13936545D01*
X46295767Y13936532D01*
X46295166Y13933505D01*
X46294863Y13930438D01*
X46294861Y13930418D01*
X46285603Y13836411D01*
X46285602Y13836399D01*
X46285300Y13833328D01*
X46285300Y13830234D01*
X46285300Y13489700D01*
X46268419Y13426700D01*
X46222300Y13380581D01*
X46159300Y13363700D01*
X41300063Y13363700D01*
X41297549Y13363498D01*
X41297533Y13363497D01*
X41220441Y13357291D01*
X41220433Y13357291D01*
X41217923Y13357088D01*
X41215450Y13356688D01*
X41215431Y13356685D01*
X41180621Y13351044D01*
X41180604Y13351041D01*
X41178132Y13350640D01*
X41175698Y13350043D01*
X41175674Y13350037D01*
X41103031Y13332185D01*
X41103020Y13332182D01*
X41098107Y13330974D01*
X41093448Y13328996D01*
X41093438Y13328992D01*
X41024605Y13299757D01*
X41024592Y13299752D01*
X41022259Y13298760D01*
X41020014Y13297586D01*
X41020002Y13297580D01*
X40988793Y13281255D01*
X40988774Y13281245D01*
X40986541Y13280076D01*
X40984397Y13278726D01*
X40984390Y13278721D01*
X40918978Y13237504D01*
X40918954Y13237489D01*
X40916825Y13236146D01*
X40914803Y13234633D01*
X40914785Y13234620D01*
X40829483Y13170764D01*
X40829468Y13170752D01*
X40826562Y13168576D01*
X40823922Y13166075D01*
X40823914Y13166067D01*
X40742925Y13089303D01*
X40742913Y13089291D01*
X40740273Y13086788D01*
X40737941Y13083999D01*
X40737930Y13083986D01*
X40705450Y13045121D01*
X40705443Y13045112D01*
X40703110Y13042320D01*
X40701120Y13039284D01*
X40701110Y13039270D01*
X40697749Y13034139D01*
X40652254Y12992345D01*
X40592884Y12977333D01*
X40592388Y12977200D01*
X40575800Y12977200D01*
X40575800Y12960610D01*
X40575800Y12711140D01*
X40574953Y12696554D01*
X40570722Y12660259D01*
X40570721Y12660243D01*
X40570300Y12656630D01*
X40570300Y10309200D01*
X40570837Y10305114D01*
X40570838Y10305113D01*
X40574722Y10275611D01*
X40575800Y10259165D01*
X40575800Y10183200D01*
X40580245Y10183200D01*
X40585538Y10163447D01*
X40596175Y10145024D01*
X40603607Y10117288D01*
X40603612Y10117274D01*
X40604678Y10113295D01*
X40655977Y9989449D01*
X40661002Y9982900D01*
X40661003Y9982899D01*
X40671261Y9969531D01*
X40690613Y9933328D01*
X40697300Y9892825D01*
X40697300Y8056793D01*
X40712614Y7932324D01*
X40713546Y7928594D01*
X40713548Y7928583D01*
X40726486Y7876801D01*
X40727420Y7873063D01*
X40772446Y7756020D01*
X40844499Y7653381D01*
X40847077Y7650526D01*
X40847082Y7650520D01*
X40882853Y7610908D01*
X40885437Y7608047D01*
X40980222Y7525933D01*
X41014759Y7508430D01*
X41065161Y7461992D01*
X41083800Y7396040D01*
X41083800Y5858363D01*
X41065161Y5792411D01*
X41014757Y5745971D01*
X40987120Y5731966D01*
X40987114Y5731963D01*
X40980229Y5728473D01*
X40974391Y5723417D01*
X40974387Y5723413D01*
X40888357Y5648886D01*
X40888342Y5648873D01*
X40885443Y5646360D01*
X40882869Y5643511D01*
X40882859Y5643500D01*
X40847089Y5603889D01*
X40844504Y5601026D01*
X40842292Y5597877D01*
X40842287Y5597869D01*
X40776886Y5504708D01*
X40776884Y5504705D01*
X40772447Y5498384D01*
X40769675Y5491180D01*
X40769672Y5491173D01*
X40728804Y5384938D01*
X40727419Y5381337D01*
X40726485Y5377601D01*
X40726485Y5377599D01*
X40713548Y5325821D01*
X40713545Y5325807D01*
X40712613Y5322075D01*
X40697300Y5197608D01*
X40697300Y5193751D01*
X40697300Y176500D01*
X40680419Y113500D01*
X40634300Y67381D01*
X40571300Y50500D01*
X39177800Y50500D01*
X39114800Y67381D01*
X39068681Y113500D01*
X39051800Y176500D01*
X39051800Y15391200D01*
X39068681Y15454200D01*
X39114800Y15500319D01*
X39177800Y15517200D01*
X46313445Y15517200D01*
X46367316Y15505103D01*
G37*
%TD.AperFunction*%
%TD*%
%TA.AperFunction,Conductor*%
%TO.N,GND*%
G36*
X19049800Y42932319D02*
G01*
X19095919Y42886200D01*
X19112800Y42823200D01*
X19112800Y24533200D01*
X19095919Y24470200D01*
X19049800Y24424081D01*
X18986800Y24407200D01*
X176500Y24407200D01*
X113500Y24424081D01*
X67381Y24470200D01*
X50500Y24533200D01*
X50500Y42823200D01*
X67381Y42886200D01*
X113500Y42932319D01*
X176500Y42949200D01*
X18986800Y42949200D01*
X19049800Y42932319D01*
G37*
%TD.AperFunction*%
%TD*%
%TA.AperFunction,Conductor*%
%TO.N,+24V*%
G36*
X58800800Y15500319D02*
G01*
X58846919Y15454200D01*
X58863800Y15391200D01*
X58863800Y176500D01*
X58846919Y113500D01*
X58800800Y67381D01*
X58737800Y50500D01*
X57344300Y50500D01*
X57281300Y67381D01*
X57235181Y113500D01*
X57218300Y176500D01*
X57218300Y5193750D01*
X57218300Y5197607D01*
X57202986Y5322076D01*
X57188180Y5381337D01*
X57143154Y5498380D01*
X57071101Y5601019D01*
X57030163Y5646353D01*
X56935378Y5728467D01*
X56900840Y5745971D01*
X56850439Y5792408D01*
X56831800Y5858360D01*
X56831800Y7396037D01*
X56850440Y7461990D01*
X56900845Y7508430D01*
X56935367Y7525924D01*
X57030157Y7608040D01*
X57071096Y7653374D01*
X57143153Y7756016D01*
X57188181Y7873063D01*
X57202987Y7932325D01*
X57218300Y8056792D01*
X57218300Y10019825D01*
X57224987Y10060328D01*
X57244339Y10096531D01*
X57259623Y10116449D01*
X57262785Y10124085D01*
X57266007Y10129664D01*
X57298424Y10166629D01*
X57332026Y10183200D01*
X57339800Y10183200D01*
X57339800Y10386165D01*
X57340878Y10402611D01*
X57340903Y10402804D01*
X57345300Y10436200D01*
X57345300Y12656630D01*
X57340647Y12696554D01*
X57339800Y12711140D01*
X57339800Y12960610D01*
X57339800Y12977200D01*
X57323211Y12977200D01*
X57322715Y12977333D01*
X57263346Y12992345D01*
X57217851Y13034139D01*
X57214489Y13039270D01*
X57214487Y13039273D01*
X57212490Y13042320D01*
X57175327Y13086788D01*
X57089038Y13168576D01*
X57086122Y13170759D01*
X57086116Y13170764D01*
X57000814Y13234620D01*
X57000807Y13234625D01*
X56998775Y13236146D01*
X56996633Y13237496D01*
X56996621Y13237504D01*
X56931209Y13278721D01*
X56929059Y13280076D01*
X56926814Y13281250D01*
X56926806Y13281255D01*
X56895597Y13297580D01*
X56895594Y13297582D01*
X56893341Y13298760D01*
X56890994Y13299757D01*
X56822161Y13328992D01*
X56822154Y13328995D01*
X56817493Y13330974D01*
X56812575Y13332183D01*
X56812568Y13332185D01*
X56739925Y13350037D01*
X56739905Y13350041D01*
X56737468Y13350640D01*
X56734990Y13351042D01*
X56734978Y13351044D01*
X56700168Y13356685D01*
X56700151Y13356687D01*
X56697677Y13357088D01*
X56695163Y13357291D01*
X56695158Y13357291D01*
X56618066Y13363497D01*
X56618051Y13363498D01*
X56615537Y13363700D01*
X56612996Y13363700D01*
X51756300Y13363700D01*
X51693300Y13380581D01*
X51647181Y13426700D01*
X51630300Y13489700D01*
X51630300Y13830234D01*
X51630300Y13833328D01*
X51620434Y13933505D01*
X51610843Y13981723D01*
X51581620Y14078057D01*
X51534164Y14166838D01*
X51506850Y14207715D01*
X51501042Y14214792D01*
X51444952Y14283137D01*
X51444945Y14283145D01*
X51442994Y14285522D01*
X51413726Y14314790D01*
X51395581Y14337738D01*
X51380974Y14361420D01*
X51368610Y14387935D01*
X51358377Y14418818D01*
X51352635Y14445640D01*
X51352453Y14447421D01*
X51351800Y14460230D01*
X51351800Y15221159D01*
X51352447Y15233910D01*
X51352630Y15235709D01*
X51358379Y15262591D01*
X51368611Y15293469D01*
X51380969Y15319976D01*
X51395584Y15343669D01*
X51413728Y15366613D01*
X51442994Y15395878D01*
X51504757Y15471135D01*
X51548284Y15505103D01*
X51602155Y15517200D01*
X58737800Y15517200D01*
X58800800Y15500319D01*
G37*
%TD.AperFunction*%
%TD*%
%TA.AperFunction,Conductor*%
%TO.N,GND*%
G36*
X97886500Y42932619D02*
G01*
X97932619Y42886500D01*
X97949500Y42823500D01*
X97949500Y24632008D01*
X97932728Y24569197D01*
X97886878Y24523108D01*
X97824156Y24506010D01*
X88091789Y24455355D01*
X78966536Y24407860D01*
X78903260Y24424520D01*
X78856871Y24470668D01*
X78839881Y24533857D01*
X78839881Y42823500D01*
X78856762Y42886500D01*
X78902881Y42932619D01*
X78965881Y42949500D01*
X97823500Y42949500D01*
X97886500Y42932619D01*
G37*
%TD.AperFunction*%
%TD*%
%TA.AperFunction,Conductor*%
%TO.N,Net-(U1-VS1)*%
G36*
X40446090Y42424386D02*
G01*
X40492191Y42378430D01*
X40509204Y42315599D01*
X40569892Y23138298D01*
X40569893Y23138284D01*
X40569906Y23134176D01*
X40570454Y23130099D01*
X40570455Y23130096D01*
X40574674Y23098753D01*
X40575800Y23081945D01*
X40575800Y22883200D01*
X40582430Y22883200D01*
X40623606Y22861030D01*
X40646427Y22828560D01*
X40648945Y22830020D01*
X40653083Y22822887D01*
X40656253Y22815285D01*
X40661276Y22808763D01*
X40661279Y22808759D01*
X40700993Y22757200D01*
X40737889Y22709299D01*
X40783990Y22663343D01*
X40890236Y22582039D01*
X40897848Y22578893D01*
X40897850Y22578892D01*
X40934094Y22563914D01*
X41013878Y22530940D01*
X41076763Y22514126D01*
X41209402Y22496700D01*
X46159300Y22496700D01*
X46222300Y22479819D01*
X46268419Y22433700D01*
X46285300Y22370700D01*
X46285300Y21773072D01*
X46285602Y21770001D01*
X46285603Y21769990D01*
X46294861Y21675983D01*
X46294863Y21675966D01*
X46295166Y21672895D01*
X46304757Y21624677D01*
X46305653Y21621721D01*
X46305656Y21621712D01*
X46332182Y21534268D01*
X46332184Y21534263D01*
X46333980Y21528343D01*
X46381436Y21439562D01*
X46408750Y21398685D01*
X46410720Y21396284D01*
X46410722Y21396282D01*
X46470647Y21323264D01*
X46470655Y21323255D01*
X46472606Y21320878D01*
X46474791Y21318693D01*
X46474792Y21318692D01*
X46501871Y21291613D01*
X46520017Y21268664D01*
X46534624Y21244982D01*
X46546988Y21218467D01*
X46557221Y21187584D01*
X46562957Y21160825D01*
X46563140Y21159032D01*
X46563799Y21146171D01*
X46563799Y20385242D01*
X46563144Y20372415D01*
X46562960Y20370617D01*
X46557219Y20343811D01*
X46546986Y20312930D01*
X46534622Y20286416D01*
X46520022Y20262746D01*
X46501880Y20239801D01*
X46474800Y20212720D01*
X46474781Y20212700D01*
X46472607Y20210525D01*
X46470656Y20208149D01*
X46470649Y20208140D01*
X46410845Y20135267D01*
X46367317Y20101297D01*
X46313445Y20089200D01*
X39177800Y20089200D01*
X39114800Y20106081D01*
X39068681Y20152200D01*
X39051800Y20215200D01*
X39051800Y22757200D01*
X39068681Y22820200D01*
X39114800Y22866319D01*
X39177800Y22883200D01*
X39543210Y22883200D01*
X39559800Y22883200D01*
X39559800Y42315200D01*
X39576681Y42378200D01*
X39622800Y42424319D01*
X39685800Y42441200D01*
X40383205Y42441200D01*
X40446090Y42424386D01*
G37*
%TD.AperFunction*%
%TD*%
%TA.AperFunction,Conductor*%
%TO.N,GND*%
G36*
X97886500Y18548319D02*
G01*
X97932619Y18502200D01*
X97949500Y18439200D01*
X97949500Y176500D01*
X97932619Y113500D01*
X97886500Y67381D01*
X97823500Y50500D01*
X60533004Y50500D01*
X60470004Y67381D01*
X60423885Y113500D01*
X60407004Y176500D01*
X60407004Y12597200D01*
X60423885Y12660200D01*
X60470004Y12706319D01*
X60533004Y12723200D01*
X88584414Y12723200D01*
X88601004Y12723200D01*
X88601004Y18439200D01*
X88617885Y18502200D01*
X88664004Y18548319D01*
X88727004Y18565200D01*
X97823500Y18565200D01*
X97886500Y18548319D01*
G37*
%TD.AperFunction*%
%TD*%
%TA.AperFunction,Conductor*%
%TO.N,Net-(U1-VS2)*%
G36*
X58292800Y42678319D02*
G01*
X58338919Y42632200D01*
X58355800Y42569200D01*
X58355800Y22883200D01*
X58737800Y22883200D01*
X58800800Y22866319D01*
X58846919Y22820200D01*
X58863800Y22757200D01*
X58863800Y20215200D01*
X58846919Y20152200D01*
X58800800Y20106081D01*
X58737800Y20089200D01*
X51602155Y20089200D01*
X51548284Y20101297D01*
X51504756Y20135266D01*
X51490858Y20152200D01*
X51442994Y20210522D01*
X51413727Y20239789D01*
X51395581Y20262738D01*
X51380974Y20286420D01*
X51368610Y20312935D01*
X51358377Y20343818D01*
X51352635Y20370640D01*
X51352453Y20372421D01*
X51351800Y20385230D01*
X51351800Y21146159D01*
X51352447Y21158910D01*
X51352630Y21160709D01*
X51358379Y21187591D01*
X51368611Y21218469D01*
X51380969Y21244976D01*
X51395584Y21268669D01*
X51413728Y21291613D01*
X51442994Y21320878D01*
X51506850Y21398685D01*
X51534164Y21439562D01*
X51581620Y21528343D01*
X51610843Y21624677D01*
X51620434Y21672895D01*
X51630300Y21773072D01*
X51630300Y22370700D01*
X51647181Y22433700D01*
X51693300Y22479819D01*
X51756300Y22496700D01*
X56701273Y22496700D01*
X56705401Y22496700D01*
X56838564Y22514267D01*
X56901679Y22531214D01*
X57025733Y22582713D01*
X57132188Y22664622D01*
X57178325Y22710905D01*
X57259899Y22817620D01*
X57263050Y22825280D01*
X57265358Y22829296D01*
X57297801Y22866409D01*
X57331803Y22883200D01*
X57339800Y22883200D01*
X57339800Y23090546D01*
X57340831Y23106628D01*
X57341508Y23111897D01*
X57344897Y23138224D01*
X57339800Y24748865D01*
X57339800Y42569200D01*
X57356681Y42632200D01*
X57402800Y42678319D01*
X57465800Y42695200D01*
X58229800Y42695200D01*
X58292800Y42678319D01*
G37*
%TD.AperFunction*%
%TD*%
%TA.AperFunction,Conductor*%
%TO.N,GND*%
G36*
X9270800Y18548319D02*
G01*
X9316919Y18502200D01*
X9333800Y18439200D01*
X9333800Y12723200D01*
X37401800Y12723200D01*
X37464800Y12706319D01*
X37510919Y12660200D01*
X37527800Y12597200D01*
X37527800Y176500D01*
X37510919Y113500D01*
X37464800Y67381D01*
X37401800Y50500D01*
X176500Y50500D01*
X113500Y67381D01*
X67381Y113500D01*
X50500Y176500D01*
X50500Y18439200D01*
X67381Y18502200D01*
X113500Y18548319D01*
X176500Y18565200D01*
X9207800Y18565200D01*
X9270800Y18548319D01*
G37*
%TD.AperFunction*%
%TD*%
%TA.AperFunction,Conductor*%
%TO.N,GND*%
G36*
X56705984Y42932686D02*
G01*
X56752085Y42886730D01*
X56769098Y42823899D01*
X56831400Y23136599D01*
X56814653Y23073430D01*
X56768516Y23027147D01*
X56705401Y23010200D01*
X51116800Y23010200D01*
X51116800Y22993610D01*
X51116800Y21773072D01*
X51107209Y21724854D01*
X51079895Y21683977D01*
X51002963Y21607046D01*
X51002959Y21607042D01*
X50997770Y21601852D01*
X50993919Y21595610D01*
X50993916Y21595605D01*
X50908535Y21457182D01*
X50908530Y21457174D01*
X50904685Y21450938D01*
X50902379Y21443981D01*
X50902377Y21443975D01*
X50851075Y21289152D01*
X50848913Y21282626D01*
X50838300Y21178745D01*
X50838300Y21175541D01*
X50838300Y21175540D01*
X50838300Y20355862D01*
X50838300Y20355843D01*
X50838301Y20352656D01*
X50838625Y20349479D01*
X50838626Y20349471D01*
X50842534Y20311211D01*
X50848913Y20248774D01*
X50851072Y20242257D01*
X50851074Y20242250D01*
X50902377Y20087426D01*
X50904685Y20080462D01*
X50908532Y20074224D01*
X50908535Y20074219D01*
X50993916Y19935796D01*
X50997770Y19929548D01*
X51002963Y19924355D01*
X51079895Y19847423D01*
X51107209Y19806546D01*
X51116800Y19758328D01*
X51116800Y15848072D01*
X51107209Y15799854D01*
X51079895Y15758977D01*
X51002963Y15682046D01*
X51002959Y15682042D01*
X50997770Y15676852D01*
X50993919Y15670610D01*
X50993916Y15670605D01*
X50908535Y15532182D01*
X50908530Y15532174D01*
X50904685Y15525938D01*
X50902379Y15518981D01*
X50902377Y15518975D01*
X50851075Y15364152D01*
X50848913Y15357626D01*
X50838300Y15253745D01*
X50838300Y15250541D01*
X50838300Y15250540D01*
X50838300Y14430862D01*
X50838300Y14430843D01*
X50838301Y14427656D01*
X50848913Y14323774D01*
X50851072Y14317257D01*
X50851074Y14317250D01*
X50902377Y14162426D01*
X50904685Y14155462D01*
X50908532Y14149224D01*
X50908535Y14149219D01*
X50993916Y14010796D01*
X50997770Y14004548D01*
X51002963Y13999355D01*
X51079895Y13922423D01*
X51107209Y13881546D01*
X51116800Y13833328D01*
X51116800Y12850200D01*
X56615537Y12850200D01*
X56655328Y12843752D01*
X56691046Y12825068D01*
X56781309Y12757498D01*
X56818472Y12713030D01*
X56831800Y12656630D01*
X56831800Y10436200D01*
X56814919Y10373200D01*
X56768800Y10327081D01*
X56736367Y10318391D01*
X56737412Y10314493D01*
X56721390Y10310200D01*
X56704800Y10310200D01*
X56704800Y10293610D01*
X56704800Y8056792D01*
X56689994Y7997530D01*
X56649055Y7952196D01*
X56591604Y7931445D01*
X56585838Y7930856D01*
X56536211Y7925786D01*
X56536205Y7925785D01*
X56529374Y7925087D01*
X56522858Y7922929D01*
X56522849Y7922926D01*
X56368025Y7871623D01*
X56368019Y7871621D01*
X56361062Y7869315D01*
X56354826Y7865470D01*
X56354818Y7865465D01*
X56216395Y7780084D01*
X56216390Y7780081D01*
X56210148Y7776230D01*
X56204958Y7771041D01*
X56204954Y7771037D01*
X56089963Y7656046D01*
X56089959Y7656042D01*
X56084770Y7650852D01*
X56080919Y7644610D01*
X56080916Y7644605D01*
X55995535Y7506182D01*
X55995530Y7506174D01*
X55991685Y7499938D01*
X55989379Y7492981D01*
X55989377Y7492975D01*
X55938075Y7338152D01*
X55935913Y7331626D01*
X55925300Y7227745D01*
X55925300Y7224541D01*
X55925300Y7224540D01*
X55925300Y6029862D01*
X55925300Y6029843D01*
X55925301Y6026656D01*
X55935913Y5922774D01*
X55938072Y5916257D01*
X55938074Y5916250D01*
X55989377Y5761426D01*
X55991685Y5754462D01*
X55995532Y5748224D01*
X55995535Y5748219D01*
X56080916Y5609796D01*
X56084770Y5603548D01*
X56210148Y5478170D01*
X56216396Y5474317D01*
X56216395Y5474317D01*
X56354818Y5388936D01*
X56354820Y5388935D01*
X56361062Y5385085D01*
X56529374Y5329313D01*
X56585917Y5323537D01*
X56591606Y5322955D01*
X56649056Y5302202D01*
X56689994Y5256868D01*
X56704800Y5197607D01*
X56704800Y176500D01*
X56687919Y113500D01*
X56641800Y67381D01*
X56578800Y50500D01*
X41336800Y50500D01*
X41273800Y67381D01*
X41227681Y113500D01*
X41210800Y176500D01*
X41210800Y5197608D01*
X41225606Y5256870D01*
X41266545Y5302204D01*
X41323995Y5322956D01*
X41386226Y5329313D01*
X41554538Y5385085D01*
X41705452Y5478170D01*
X41830830Y5603548D01*
X41923915Y5754462D01*
X41979687Y5922774D01*
X41990300Y6026655D01*
X41990299Y7227744D01*
X41979687Y7331626D01*
X41923915Y7499938D01*
X41830830Y7650852D01*
X41705452Y7776230D01*
X41699204Y7780084D01*
X41560781Y7865465D01*
X41560776Y7865468D01*
X41554538Y7869315D01*
X41547576Y7871622D01*
X41547574Y7871623D01*
X41392751Y7922925D01*
X41392749Y7922926D01*
X41386226Y7925087D01*
X41379389Y7925786D01*
X41379387Y7925786D01*
X41323994Y7931445D01*
X41266544Y7952198D01*
X41225606Y7997532D01*
X41210800Y8056793D01*
X41210800Y10166610D01*
X41210800Y10183200D01*
X41194209Y10183200D01*
X41178188Y10187493D01*
X41179232Y10191391D01*
X41146800Y10200081D01*
X41100681Y10246200D01*
X41083800Y10309200D01*
X41083800Y12656630D01*
X41097128Y12713030D01*
X41134291Y12757498D01*
X41224554Y12825068D01*
X41260272Y12843752D01*
X41300063Y12850200D01*
X46782210Y12850200D01*
X46798800Y12850200D01*
X46798800Y13833328D01*
X46808391Y13881546D01*
X46835705Y13922423D01*
X46835704Y13922423D01*
X46917830Y14004548D01*
X47010915Y14155462D01*
X47066687Y14323774D01*
X47077300Y14427655D01*
X47077299Y15253744D01*
X47066687Y15357626D01*
X47010915Y15525938D01*
X46917830Y15676852D01*
X46835705Y15758977D01*
X46808391Y15799854D01*
X46798800Y15848072D01*
X46798800Y19758328D01*
X46808391Y19806546D01*
X46835705Y19847423D01*
X46835704Y19847423D01*
X46917830Y19929548D01*
X47010915Y20080462D01*
X47066687Y20248774D01*
X47077300Y20352655D01*
X47077299Y21178744D01*
X47066687Y21282626D01*
X47010915Y21450938D01*
X46917830Y21601852D01*
X46835705Y21683977D01*
X46808391Y21724854D01*
X46798800Y21773072D01*
X46798800Y22993610D01*
X46798800Y23010200D01*
X46782210Y23010200D01*
X41209402Y23010200D01*
X41146517Y23027014D01*
X41100416Y23072970D01*
X41083403Y23135801D01*
X41021101Y42823101D01*
X41037848Y42886270D01*
X41083985Y42932553D01*
X41147100Y42949500D01*
X56643099Y42949500D01*
X56705984Y42932686D01*
G37*
%TD.AperFunction*%
%TD*%
M02*
