M48
; DRILL file {KiCad (7.0.0)} date Mon Jul 10 13:28:03 2023
; FORMAT={-:-/ absolute / inch / decimal}
; #@! TF.CreationDate,2023-07-10T13:28:03+01:00
; #@! TF.GenerationSoftware,Kicad,Pcbnew,(7.0.0)
; #@! TF.FileFunction,Plated,1,4,PTH
FMAT,2
INCH
; #@! TA.AperFunction,Plated,PTH,ViaDrill
T1C0.0157
; #@! TA.AperFunction,Plated,PTH,ViaDrill
T2C0.1260
%
G90
G05
T1
X0.2575Y1.6109
X0.2575Y1.3509
X0.2575Y0.5809
X0.2575Y0.4309
X0.2575Y0.1709
X0.4125Y1.0209
X0.6175Y1.6109
X0.6175Y1.3509
X0.6175Y1.0209
X0.7175Y0.4309
X0.7175Y0.1709
X0.9375Y0.3059
X1.1575Y0.4309
X1.1575Y0.1709
X1.7275Y1.6309
X1.7275Y1.4809
X1.7275Y1.2709
X1.7275Y1.0809
X1.7275Y0.9409
X1.7275Y0.4309
X1.7275Y0.0659
X1.8175Y0.9409
X1.8175Y0.4709
X1.9275Y1.2709
X1.9275Y1.0809
X1.9275Y0.8109
X1.9275Y0.7009
X1.9275Y0.5809
X2.0375Y0.9409
X2.0375Y0.4709
X2.1375Y1.6309
X2.1375Y1.4809
X2.1375Y1.2709
X2.1375Y1.0809
X2.1375Y0.9409
X2.1375Y0.4309
X2.1375Y0.0659
X2.6982Y0.4309
X2.6982Y0.1709
X2.9175Y0.3059
X3.1382Y0.4309
X3.1382Y0.1709
X3.2375Y1.0209
X3.2389Y1.6109
X3.2389Y1.3509
X3.4475Y1.0209
X3.5975Y0.5809
X3.5982Y0.4309
X3.5982Y0.1709
X3.5989Y1.6109
X3.5989Y1.3509
T2
X0.4875Y1.4809
X0.4875Y0.3009
X1.9275Y1.4809
X1.9275Y0.3009
X3.3682Y0.3009
X3.3689Y1.4809
T0
M30
